<?xml version="1.0" ?><svg style="enable-background:new 0 0 256 256;" version="1.1" viewBox="0 0 256 256" xml:space="preserve" xmlns="http://www.w3.org/2000/svg" xmlns:xlink="http://www.w3.org/1999/xlink"><style type="text/css">
	.st0{fill:#00A388;}
	.st1{fill:#EA685E;stroke:#00886F;stroke-width:15;stroke-miterlimit:10;}
	.st2{fill:#E8E8E8;}
	.st3{fill:#FFFFFF;stroke:#00886F;stroke-width:15;stroke-miterlimit:10;}
	.st4{fill:#00886F;}
	.st5{fill:#FFFFFF;}
	.st6{fill:#CCCCCC;}
	.st7{fill:none;stroke:#00A388;stroke-width:4;stroke-miterlimit:10;}
	.st8{fill:#EA685E;}
	.st9{fill:#FFAB80;}
	.st10{fill:#2C3E50;}
	.st11{fill:#4B687F;}
	.st12{fill:none;stroke:#3E5063;stroke-width:4;stroke-miterlimit:10;}
	.st13{fill:#FFD766;}
	.st14{fill:#FFE6D3;}
	.st15{fill:#F09A79;}
	.st16{fill:#C91E01;}
	.st17{fill:#EA3B28;}
	.st18{fill:#0F627F;}
	.st19{fill:#005670;}
	.st20{filter:url(#Adobe_OpacityMaskFilter);}
	.st21{mask:url(#SVGID_2_);}
	.st22{fill:#8C623B;}
	.st23{fill:#E6E6E6;stroke:#005670;stroke-width:16;stroke-miterlimit:10;}
	.st24{opacity:0.6;}
	.st25{fill:#E6E6E6;}
	.st26{fill:#FFEC82;}
	.st27{fill:#FFCF3A;}
	.st28{filter:url(#Adobe_OpacityMaskFilter_1_);}
	.st29{mask:url(#SVGID_1_);}
	.st30{fill:#603813;}
	.st31{fill:#F2F2F2;}
	.st32{fill:#666666;}
</style><g id="Layer_2"><circle class="st2" cx="128" cy="128" r="120"/></g><g id="Layer_1"><g><g><path class="st17" d="M174.330017,100.659973c-0.380005-4.159973-3.860046-7.349976-8.040039-7.349976H89.710022     c-4.179993,0-7.660034,3.190002-8.040039,7.349976l-1,11.059998l-7.869995,87.080017     c-0.25,2.779968,1.940002,5.179993,4.730042,5.179993h97.799988v-92.26001L174.330017,100.659973z M149.289978,101.019958     c3.429993,0,6.210022,2.780029,6.210022,6.210022s-2.780029,6.210022-6.210022,6.210022s-6.209961-2.780029-6.209961-6.210022     S145.859985,101.019958,149.289978,101.019958z M106.710022,101.019958c3.429993,0,6.209961,2.780029,6.209961,6.210022     s-2.779968,6.210022-6.209961,6.210022S100.5,110.659973,100.5,107.22998S103.280029,101.019958,106.710022,101.019958z"/></g><g><path class="st16" d="M163,197.854385H93c-1.657227,0-3-1.342773-3-3s1.342773-3,3-3h70c1.657227,0,3,1.342773,3,3     S164.657227,197.854385,163,197.854385z"/></g><g><path class="st22" d="M110.701614,90.982994V77.300186c0-9.538017,7.760361-17.298386,17.298386-17.298386     s17.298386,7.760368,17.298386,17.298386v13.682808h7.983871V77.300186c0-13.940586-11.341675-25.282257-25.282257-25.282257     S102.717743,63.3596,102.717743,77.300186v13.682808H110.701614z"/></g><g><path class="st16" d="M178.469971,203.982071h-3.139954v-92.26001l7.869995,87.080078     C183.450012,201.582169,181.26001,203.982071,178.469971,203.982071z"/></g><g><path class="st16" d="M77.530029,203.982071h3.139954v-92.26001l-7.869995,87.080078     C72.549988,201.582169,74.73999,203.982071,77.530029,203.982071z"/></g></g></g></svg>