<?xml version="1.0" ?><!DOCTYPE svg  PUBLIC '-//W3C//DTD SVG 1.1//EN'  'http://www.w3.org/Graphics/SVG/1.1/DTD/svg11.dtd'><svg enable-background="new 0 0 128 128" id="Слой_1" version="1.1" viewBox="0 0 128 128" xml:space="preserve" xmlns="http://www.w3.org/2000/svg" xmlns:xlink="http://www.w3.org/1999/xlink"><circle cx="64" cy="64" fill="#F9E373" r="62"/><g><g><path d="M42,39.5h-8c-2.8,0-5,2.2-5,5h18C47,41.7,44.8,39.5,42,39.5z" fill="#52544F"/></g><g><path d="M112,44.5h10.9c-0.6-1.7-1.2-3.4-1.9-5h-4C114.2,39.5,112,41.7,112,44.5z" fill="#52544F"/></g><g><path d="M113.5,43.2c0.5-1.5,1.9-2.5,3.5-2.5h4.5c-0.3-0.8-0.7-1.7-1.1-2.5H117c-3.4,0-6.2,2.8-6.2,6.2    c0,0.7,0.6,1.2,1.2,1.2h11.3c-0.3-0.8-0.5-1.7-0.8-2.5H113.5z" fill="#2D2E2D"/></g><g><path d="M42,38.2h-8c-3.4,0-6.2,2.8-6.2,6.2c0,0.7,0.6,1.2,1.2,1.2h18c0.7,0,1.2-0.6,1.2-1.2    C48.2,41.1,45.4,38.2,42,38.2z M30.5,43.2c0.5-1.5,1.9-2.5,3.5-2.5h8c1.6,0,3,1,3.5,2.5H30.5z" fill="#2D2E2D"/></g><g><path d="M64,126c34.2,0,62-27.8,62-62c0-6.8-1.1-13.4-3.1-19.5H29c-5.5,0-10,4.5-10,10v52.1    C30.3,118.5,46.3,126,64,126z" fill="#DF665B"/></g><g><path d="M20.2,107.9l0-57.4c0.2-1,4-4.8,8.8-4.8h94.3c-0.3-0.8-0.5-1.7-0.8-2.5H29c-6,0-11.2,4.9-11.2,7.2v54.8    C18.6,106.2,19.4,107.1,20.2,107.9z" fill="#2D2E2D"/></g><g><path d="M79,61.2c-15.9,0-28.8,12.9-28.8,28.8s12.9,28.8,28.8,28.8s28.8-12.9,28.8-28.8S94.9,61.2,79,61.2z     M79,116.2c-14.5,0-26.2-11.8-26.2-26.2S64.5,63.8,79,63.8s26.2,11.8,26.2,26.2S93.5,116.2,79,116.2z" fill="#F6F3E0"/></g><g><path d="M98.2,83.3H86.5c-0.4,0-0.8-0.4-0.8-0.8V70.8c0-0.4-0.4-0.8-0.8-0.8H73.1c-0.4,0-0.8,0.4-0.8,0.8v11.7    c0,0.4-0.4,0.8-0.8,0.8H59.8c-0.4,0-0.8,0.4-0.8,0.8v11.7c0,0.4,0.4,0.8,0.8,0.8h11.7c0.4,0,0.8,0.4,0.8,0.8v11.7    c0,0.4,0.4,0.8,0.8,0.8h11.7c0.4,0,0.8-0.4,0.8-0.8V97.5c0-0.4,0.4-0.8,0.8-0.8h11.7c0.4,0,0.8-0.4,0.8-0.8V84.1    C99,83.7,98.6,83.3,98.2,83.3z" fill="#F6F3E0"/></g><g><path d="M86.5,23.5h-15c-11,0-17,4-17,15v6h7v-6c0-5.5,4.5-5,10-5h15c5.5,0,10-0.5,10,5v6h7v-6    C103.5,27.5,97.5,23.5,86.5,23.5z" fill="#52544F"/></g><g opacity="0.5"><rect fill="#04080A" height="6" width="7" x="54.5" y="38.5"/></g><g opacity="0.5"><rect fill="#04080A" height="6" width="7" x="96.5" y="38.5"/></g><g><path d="M86.5,22.2h-15c-12.5,0-18.2,5.2-18.2,16.2v6c0,0.7,0.6,1.2,1.2,1.2h7c0.7,0,1.2-0.6,1.2-1.2v-6    c0-3.2,1.5-3.8,6.2-3.8l1.2,0c0.4,0,0.9,0,1.3,0h15c0.5,0,0.9,0,1.3,0l1.2,0c4.7,0,6.2,0.5,6.2,3.8v6c0,0.7,0.6,1.2,1.2,1.2h7    c0.7,0,1.2-0.6,1.2-1.2v-6C104.8,27.4,99,22.2,86.5,22.2z M102.2,43.2h-4.5v-4.8c0-6.3-5.2-6.3-8.7-6.3l-1.2,0c-0.4,0-0.9,0-1.3,0    h-15c-0.4,0-0.9,0-1.3,0l-1.2,0c-3.5,0-8.7,0-8.7,6.3v4.8h-4.5v-4.8c0-9.6,4.7-13.8,15.8-13.8h15c11,0,15.8,4.1,15.8,13.8V43.2z" fill="#2D2E2D"/></g><g><path d="M19,53.2c-0.7,0-1.2,0.6-1.2,1.2s0.6,1.2,1.2,1.2h106.4c-0.1-0.8-0.2-1.7-0.4-2.5H19z" fill="#2D2E2D"/></g></g></svg>